<svg width="105" height="105" viewBox="0 0 105 105" fill="none" xmlns="http://www.w3.org/2000/svg">
<g clip-path="url(#clip0)">
<path d="M94.5009 16.4373H47.6259V19.9095H94.5009V16.4373Z" fill="black"/>
<path d="M77.1397 23.3816H47.6259V26.8538H77.1397V23.3816Z" fill="black"/>
<path d="M77.1397 30.3263H47.6259V33.7985H77.1397V30.3263Z" fill="black"/>
<path d="M94.5008 9.49292H61.5146V12.9651H94.5008V9.49292Z" fill="black"/>
<path d="M58.0427 9.49292H54.5704V12.9651H58.0427V9.49292Z" fill="black"/>
<path d="M54.5702 70.2566H51.098V73.7288H54.5702V70.2566Z" fill="black"/>
<path d="M29.756 12.4564L27.3011 10.0016L23.8289 13.4738C23.1512 14.1518 23.1512 15.2507 23.8289 15.9287L27.3011 19.4009L29.756 16.946L27.5112 14.7012L29.756 12.4564Z" fill="black"/>
<path d="M43.6449 13.4738L40.1727 10.0016L37.7178 12.4564L39.9626 14.7012L37.7178 16.946L40.1727 19.4009L43.6449 15.9287C44.3227 15.2507 44.3227 14.1518 43.6449 13.4738Z" fill="black"/>
<path d="M33.8273 8.94179L30.3519 19.3583L33.644 20.4567L37.1194 10.0402L33.8273 8.94179Z" fill="black"/>
<path d="M91.0287 54.6316V40.7427H87.5565V54.6316H84.0843V37.2705H80.6121V54.6316H77.1399V45.9511H73.6676V54.6316H70.1954V44.215H66.7232V54.6316H63.251V47.6872H59.7787V54.6316H56.3065V58.1038H94.501V54.6316H91.0287Z" fill="black"/>
<path d="M92.7648 0.812256H12.9037C7.15308 0.817898 2.4927 5.47827 2.48706 11.2289V45.3018V45.3175V65.0484V70.2567C2.4927 76.0074 7.15308 80.6677 12.9037 80.6734H34.4003L27.4558 94.5623H18.1121C15.2355 94.5623 12.9037 96.8941 12.9037 99.7706C12.9037 102.647 15.2355 104.979 18.1121 104.979H87.5565C90.433 104.979 92.7648 102.647 92.7648 99.7706C92.7648 96.8941 90.433 94.5623 87.5565 94.5623H78.2128L71.2683 80.6734H92.7648C98.5155 80.6677 103.176 76.0074 103.182 70.2567V11.2289C103.176 5.47827 98.5155 0.817898 92.7648 0.812256ZM5.95928 25.2393L9.90546 29.9373C10.2353 30.3303 10.7223 30.557 11.2353 30.557H16.5496C17.0626 30.557 17.5496 30.3303 17.8794 29.9373L21.8273 25.2393L25.7232 26.505L26.1537 32.6213C26.1893 33.1328 26.4493 33.6024 26.8638 33.9043L31.1641 37.0293C31.5802 37.3296 32.1071 37.4318 32.6051 37.3088L38.5652 35.8279L40.9749 39.1421L37.7266 44.3504C37.4575 44.7871 37.3953 45.3203 37.5565 45.807L39.2006 50.8609C39.3588 51.3483 39.724 51.7411 40.1989 51.9338L45.8898 54.2411V58.3383L40.1954 60.6456C39.7195 60.8374 39.3536 61.2313 39.1971 61.7202L38.6763 63.3123H28.6746C32.5652 55.1664 29.1155 45.4088 20.9697 41.5182C16.1852 39.233 10.5893 39.4106 5.95928 41.9945V25.2393ZM5.95928 46.1248C11.5747 41.7439 19.6785 42.7448 24.0591 48.3604C27.4415 52.6959 27.7026 58.6994 24.7093 63.3123H5.95928V46.1248ZM87.5565 98.0345C88.5153 98.0345 89.2926 98.8118 89.2926 99.7706C89.2926 100.729 88.5153 101.507 87.5565 101.507H18.1121C17.1533 101.507 16.3759 100.729 16.3759 99.7706C16.3759 98.8118 17.1533 98.0345 18.1121 98.0345H87.5565ZM74.3308 94.5623H31.3378L38.2822 80.6734H67.3864L74.3308 94.5623ZM99.7093 70.2567C99.7093 74.092 96.6001 77.2011 92.7648 77.2011H12.9037C9.06844 77.2011 5.95928 74.092 5.95928 70.2567V66.7845H25.6155H25.6312H99.7093V70.2567ZM99.7093 63.3123H42.8603L48.2787 61.1161C48.9332 60.8505 49.3616 60.2148 49.3621 59.5084V53.0692C49.3623 52.3622 48.9339 51.7257 48.2787 51.4598L42.244 49.0189L41.1016 45.5032L44.5426 39.9824C44.9159 39.3826 44.8883 38.6165 44.4732 38.0449L40.6884 32.8366C40.2729 32.2643 39.5519 32.0013 38.8655 32.1716L32.553 33.7341L29.5704 31.5675L29.1138 25.0918C29.0641 24.3858 28.5908 23.7806 27.9176 23.5623L21.7978 21.5727C21.1244 21.3583 20.3883 21.5699 19.9315 22.1091L15.7527 27.0831H12.0496L7.869 22.1091C7.41197 21.5692 6.67478 21.3574 6.00095 21.5727L5.95928 21.5883V11.2289C5.95928 7.39364 9.06844 4.28448 12.9037 4.28448H92.7648C96.6001 4.28448 99.7093 7.39364 99.7093 11.2289V63.3123Z" fill="black"/>
</g>
<defs>
<clipPath id="clip0">
<rect width="104.167" height="104.167" fill="white" transform="translate(0.750854 0.812256)"/>
</clipPath>
</defs>
</svg>
