<svg width="50" height="51" viewBox="0 0 50 51" fill="none" xmlns="http://www.w3.org/2000/svg">
<g clip-path="url(#clip0)">
<path fill-rule="evenodd" clip-rule="evenodd" d="M49.3151 14.4075C49.3151 13.9144 49.3082 13.4144 49.2945 12.9212C49.2671 11.839 49.1986 10.75 49.0069 9.68151C48.8151 8.59932 48.4932 7.58562 47.9932 6.59932C47.5 5.63356 46.8562 4.74315 46.089 3.97603C45.3219 3.2089 44.4315 2.56507 43.4658 2.07192C42.4795 1.57192 41.4726 1.25 40.3904 1.05822C39.3219 0.866438 38.2329 0.804795 37.1507 0.770548C36.6507 0.763699 36.1507 0.756849 35.6575 0.75C35.0685 0.75 34.4795 0.75 33.8904 0.75H15.4247C14.8356 0.75 14.2466 0.75 13.6575 0.75C13.1644 0.75 12.6644 0.756849 12.1712 0.770548C11.089 0.797945 10 0.866438 8.93151 1.05822C7.84932 1.25685 6.83562 1.57192 5.85616 2.07877C4.88356 2.57192 4 3.21575 3.23288 3.98288C2.46575 4.75 1.81507 5.63356 1.32192 6.60616C0.821918 7.59247 0.5 8.59932 0.308219 9.68836C0.116438 10.7568 0.0547945 11.8459 0.0205479 12.9281C0.0136986 13.4212 0.00684932 13.9144 0 14.4075C0 14.9966 0 15.5856 0 16.1747V34.6336C0 35.2226 0 35.8116 0 36.4007C0 36.8938 0.00684932 37.3938 0.0205479 37.887C0.0479452 38.9692 0.116438 40.0582 0.308219 41.1267C0.5 42.2089 0.821918 43.2226 1.32192 44.2089C1.81507 45.1747 2.4589 46.0651 3.22603 46.8322C3.99315 47.5993 4.88356 48.2431 5.84932 48.7363C6.83562 49.2363 7.84247 49.5582 8.92466 49.75C9.99315 49.9418 11.0822 50.0034 12.1644 50.0377C12.6575 50.0514 13.1575 50.0582 13.6507 50.0582C14.2397 50.0651 14.8288 50.0582 15.4178 50.0582H33.8767C34.4658 50.0582 35.0548 50.0582 35.6438 50.0582C36.137 50.0582 36.637 50.0514 37.1301 50.0377C38.2123 50.0103 39.3014 49.9418 40.3699 49.75C41.4521 49.5582 42.4658 49.2363 43.4452 48.7363C44.411 48.2431 45.3014 47.5993 46.0685 46.8322C46.8356 46.0651 47.4795 45.1815 47.9726 44.2089C48.4726 43.2226 48.7945 42.2158 48.9863 41.1267C49.1781 40.0582 49.2397 38.9692 49.274 37.887C49.2877 37.3938 49.2945 36.8938 49.2945 36.4007C49.3014 35.8116 49.2945 35.2226 49.2945 34.6336V16.1747C49.3151 15.5856 49.3151 14.9966 49.3151 14.4075ZM36.1027 32.839C36.1027 33.4623 36.0959 34.0308 35.9658 34.6541C35.8356 35.2637 35.6027 35.8322 35.2466 36.3459C34.8904 36.8596 34.4315 37.2774 33.8973 37.5925C33.3562 37.9144 32.7877 38.0925 32.1849 38.2158C31.0479 38.4418 30.274 38.4966 29.5411 38.3527C28.8356 38.2089 28.2397 37.887 27.7603 37.4486C27.0548 36.7979 26.6096 35.9212 26.5137 35.0103C26.4041 33.9349 26.7603 32.7911 27.5616 31.9418C27.9658 31.5171 28.4795 31.1815 29.1644 30.9144C29.8767 30.6404 30.6644 30.4692 31.8767 30.2295C32.1986 30.1678 32.5137 30.0993 32.8356 30.0377C33.2534 29.9555 33.6164 29.8459 33.9041 29.4897C34.1986 29.1336 34.1986 28.6952 34.1986 28.2705V17.4075C34.1986 16.5788 33.8288 16.3527 33.0342 16.5034C32.4658 16.613 20.2808 19.0719 20.2808 19.0719C19.5959 19.2363 19.3493 19.4623 19.3493 20.3185V36.2295C19.3493 36.8527 19.3151 37.4212 19.1849 38.0445C19.0548 38.6541 18.8219 39.2226 18.4658 39.7363C18.1096 40.25 17.6507 40.6678 17.1164 40.9829C16.5753 41.3048 16.0068 41.4897 15.4041 41.613C14.2671 41.839 13.4932 41.8938 12.7603 41.75C12.0548 41.6062 11.4589 41.2774 10.9795 40.839C10.274 40.1884 9.86301 39.3116 9.76027 38.4007C9.65069 37.3253 9.9726 36.1815 10.7808 35.3322C11.1849 34.9075 11.6986 34.5719 12.3836 34.3048C13.0959 34.0308 13.8836 33.8596 15.0959 33.6199C15.4178 33.5582 15.7329 33.4897 16.0548 33.4281C16.4726 33.3459 16.8356 33.2363 17.1233 32.8801C17.411 32.524 17.4452 32.1062 17.4452 31.6815C17.4452 28.3116 17.4452 13.339 17.4452 13.339C17.4452 13.0925 17.4658 12.9281 17.4795 12.8459C17.5411 12.4623 17.6918 12.1267 17.9726 11.8938C18.2055 11.7021 18.5068 11.5651 18.8836 11.4829H18.8904L33.5616 8.51027C33.6918 8.48288 34.7466 8.29795 34.8699 8.28425C35.6644 8.21575 36.1096 8.7363 36.1096 9.57877L36.1027 32.839Z" fill="#C1BEBE"/>
</g>
<defs>
<clipPath id="clip0">
<rect width="50" height="50" fill="white" transform="translate(0 0.75)"/>
</clipPath>
</defs>
</svg>
