<svg width="51" height="51" viewBox="0 0 51 51" fill="none" xmlns="http://www.w3.org/2000/svg">
<path fill-rule="evenodd" clip-rule="evenodd" d="M17.4333 35.4333H30.0973C33.6215 35.4333 36.2793 32.9878 36.4225 29.5359C36.5659 26.8895 35.2833 25.5298 32.9051 24.6094C34.4809 24.0628 35.3675 22.6852 35.3962 21.0743C35.4821 18.0827 33.0771 15.4333 30.0973 15.4333H17.4333V35.4333ZM27.1853 21.0743H25.1317V23.1257H27.1853C27.7517 23.1257 28.211 22.6664 28.211 22.1C28.211 21.5336 27.7517 21.0743 27.1853 21.0743ZM25.1317 27.2282H27.4422C28.1502 27.2282 28.7242 27.8023 28.7242 28.5102C28.7242 29.2184 28.1502 29.7922 27.4422 29.7922H25.1317V27.2282Z" fill="url(#paint0_linear)"/>
<path fill-rule="evenodd" clip-rule="evenodd" d="M50.9333 25.4334C50.9333 39.2404 39.7406 50.4333 25.9334 50.4333C12.1263 50.4333 0.93335 39.2404 0.93335 25.4334C0.93335 11.6262 12.1263 0.433289 25.9334 0.433289C39.7406 0.433289 50.9333 11.6262 50.9333 25.4334ZM47.0873 25.4334C47.0873 37.1163 37.6163 46.5871 25.9334 46.5871C14.2504 46.5871 4.77952 37.1163 4.77952 25.4334C4.77952 13.7504 14.2504 4.27945 25.9334 4.27945C37.6163 4.27945 47.0873 13.7504 47.0873 25.4334Z" fill="url(#paint1_linear)"/>
<defs>
<linearGradient id="paint0_linear" x1="23.4334" y1="-27.0667" x2="-26.5667" y2="22.9332" gradientUnits="userSpaceOnUse">
<stop stop-color="#C1BEBE"/>
<stop offset="1" stop-color="#C1BEBE"/>
</linearGradient>
<linearGradient id="paint1_linear" x1="23.4334" y1="-27.0667" x2="-26.5667" y2="22.9332" gradientUnits="userSpaceOnUse">
<stop stop-color="#C1BEBE"/>
<stop offset="0.989583" stop-color="#C1BEBE" stop-opacity="0.74"/>
</linearGradient>
</defs>
</svg>
