<svg width="30" height="30" viewBox="0 0 30 30" fill="none" xmlns="http://www.w3.org/2000/svg">
<path d="M15.0001 5.59998C14.0557 5.59998 13.1325 5.88002 12.3473 6.40471C11.562 6.92939 10.95 7.67515 10.5886 8.54766C10.2272 9.42018 10.1326 10.3803 10.3169 11.3065C10.5011 12.2328 10.9559 13.0836 11.6237 13.7514C12.2915 14.4192 13.1423 14.874 14.0685 15.0582C14.9948 15.2425 15.9549 15.1479 16.8274 14.7865C17.6999 14.4251 18.4457 13.8131 18.9704 13.0278C19.4951 12.2426 19.7751 11.3194 19.7751 10.375C19.7751 9.10857 19.272 7.89403 18.3765 6.99854C17.481 6.10305 16.2665 5.59998 15.0001 5.59998V5.59998ZM15.0001 13.4833C14.3853 13.4833 13.7844 13.301 13.2732 12.9595C12.762 12.6179 12.3636 12.1325 12.1284 11.5645C11.8931 10.9965 11.8316 10.3715 11.9515 9.76857C12.0714 9.16561 12.3675 8.61176 12.8022 8.17705C13.2369 7.74234 13.7907 7.4463 14.3937 7.32637C14.9967 7.20643 15.6216 7.26799 16.1896 7.50325C16.7576 7.73851 17.243 8.13692 17.5846 8.64808C17.9261 9.15924 18.1084 9.76021 18.1084 10.375C18.1062 11.1979 17.7778 11.9864 17.1951 12.5675C16.6124 13.1486 15.823 13.475 15.0001 13.475V13.4833Z" fill="white"/>
<path d="M14.9998 1.66669C12.4041 1.66885 9.91476 2.69809 8.07545 4.5296C6.23613 6.36111 5.19631 8.84605 5.18311 11.4417C5.18311 15.3334 7.36644 18.5917 8.96644 20.9667L9.25811 21.4C10.85 23.7072 12.5577 25.9323 14.3748 28.0667L15.0081 28.8084L15.6414 28.0667C17.4582 25.9321 19.166 23.707 20.7581 21.4L21.0498 20.9584C22.6414 18.5834 24.8248 15.3334 24.8248 11.4417C24.8116 8.84461 23.7706 6.35841 21.9295 4.52666C20.0884 2.69492 17.5969 1.66665 14.9998 1.66669V1.66669ZM19.6581 20L19.3581 20.4417C17.9248 22.5917 16.0248 25 14.9998 26.1917C14.0164 25 12.0748 22.5917 10.6414 20.4417L10.3498 20C8.87477 17.8 6.84977 14.7917 6.84977 11.4084C6.84977 10.3381 7.06058 9.27829 7.47015 8.28948C7.87973 7.30068 8.48005 6.40223 9.23685 5.64543C9.99365 4.88864 10.8921 4.28831 11.8809 3.87874C12.8697 3.46916 13.9295 3.25835 14.9998 3.25835C16.07 3.25835 17.1298 3.46916 18.1186 3.87874C19.1074 4.28831 20.0059 4.88864 20.7627 5.64543C21.5195 6.40223 22.1198 7.30068 22.5294 8.28948C22.939 9.27829 23.1498 10.3381 23.1498 11.4084C23.1498 14.825 21.1331 17.8334 19.6581 20V20Z" fill="white"/>
</svg>
