<svg width="50" height="50" viewBox="0 0 50 50" fill="none" xmlns="http://www.w3.org/2000/svg">
<circle cx="25" cy="25" r="25" fill="#C1BEBE"/>
<path d="M35.2811 34.8245C34.872 35.5044 33.9992 35.6948 33.3173 35.2868C27.944 32.023 21.207 31.2886 13.2425 33.0837C12.4788 33.2469 11.7151 32.7845 11.5514 32.023C11.3878 31.2614 11.8515 30.4998 12.6152 30.3366C21.3161 28.3511 28.7895 29.1943 34.7902 32.8661C35.472 33.2741 35.6903 34.1445 35.2811 34.8245ZM38.0632 28.6231C37.545 29.4663 36.454 29.711 35.6084 29.2215C29.4714 25.4408 20.1159 24.3528 12.8606 26.556C11.906 26.828 10.9241 26.3112 10.6513 25.3864C10.3786 24.4344 10.8968 23.4553 11.8515 23.1833C20.1432 20.681 30.4534 21.8777 37.5177 26.2024C38.3087 26.692 38.5815 27.7799 38.0632 28.6231ZM38.3087 22.1497C30.9443 17.7979 18.8067 17.3899 11.7696 19.5114C10.6513 19.865 9.45121 19.2394 9.09663 18.0971C8.74205 16.9819 9.39666 15.7852 10.515 15.4316C18.5885 12.9837 32.0081 13.4732 40.4635 18.4779C41.4727 19.0762 41.8 20.3818 41.1999 21.3882C40.6271 22.4217 39.3179 22.7753 38.3087 22.1497Z" fill="#1A1A1A"/>
</svg>
