<svg width="20" height="23" viewBox="0 0 20 23" fill="none" xmlns="http://www.w3.org/2000/svg">
<path d="M13.7581 19.4092C13.9165 19.7374 14.0053 20.1055 14.0053 20.4944C14.0053 21.8751 12.886 22.9944 11.5053 22.9944C10.6469 22.9944 9.88953 22.5617 9.43937 21.9026L8.7646 22.2922C6.9186 23.358 4.4979 22.3319 4.28959 20.3795C4.09057 18.7109 3.03745 16.1674 1.12329 12.8091C-0.408382 10.1219 0.36346 6.7482 2.81889 4.97629C2.32184 4.56357 2.00532 3.94095 2.00532 3.2444C2.00532 2.00176 3.01268 0.994396 4.25532 0.994396C5.37922 0.994396 6.31065 1.81843 6.4784 2.89528C8.07779 2.24907 9.83753 2.34101 11.3252 3.0565C11.1178 3.66443 11.0053 4.31627 11.0053 4.9944C11.0053 5.05653 11.0063 5.11844 11.0081 5.18011C9.77456 4.32098 8.10644 4.19697 6.71949 4.99772L4.33599 6.37382C2.43031 7.47407 1.77119 9.90695 2.86085 11.8187C4.89675 15.3906 6.03728 18.1452 6.2769 20.155C6.32481 20.6038 7.11141 20.9373 7.7646 20.5601L17.2909 15.0601C17.9518 14.6785 18.0616 13.8291 17.6739 13.5618C16.8086 12.9144 15.8843 11.9323 14.8923 10.6117C15.5495 10.8591 16.2616 10.9944 17.0053 10.9944C17.2615 10.9944 17.5139 10.9783 17.7616 10.9472C18.1436 11.3551 18.5032 11.6853 18.8391 11.9368C20.4912 13.0714 20.149 15.7194 18.2909 16.7922L13.7581 19.4092Z" fill="black" fill-opacity="0.2"/>
</svg>
