<svg width="35" height="38" viewBox="0 0 35 38" fill="none" xmlns="http://www.w3.org/2000/svg">
<path d="M34.4137 24.089L26.2766 33.3279C25.1904 34.5581 23.6204 35.2642 21.9697 35.2648H9.71258L7.5839 37.3716L0 30.0544L5.43615 24.7082C7.68798 22.494 11.02 21.7476 14.0157 22.7864L15.2136 23.2017H22.5533C23.1792 23.2014 23.7785 23.4523 24.2142 23.897C24.6499 24.3417 24.8847 24.9423 24.8651 25.5615C24.7937 26.819 23.7342 27.7977 22.4618 27.7815H18.048C17.7131 27.7599 17.3938 27.9245 17.2197 28.2085C17.0456 28.4925 17.0456 28.8488 17.2197 29.1328C17.3938 29.4169 17.7131 29.5815 18.048 29.5598H22.4618C24.6998 29.5626 26.5462 27.8266 26.6581 25.6143C26.6581 25.6143 26.6581 25.5766 26.6581 25.5577L30.7362 21.027C31.5967 20.0388 33.0898 19.8942 34.1276 20.6985C34.6263 21.1064 34.9378 21.696 34.9917 22.3341C35.0455 22.9722 34.8371 23.6049 34.4137 24.089ZM31.2359 4.38028V4.85978C31.2359 5.38459 31.2359 5.9245 31.2588 6.50217C31.3084 9.04316 31.3618 12.0221 30.4958 14.8085C29.2945 18.5808 25.76 21.1461 21.7637 21.1461C17.7674 21.1461 14.2328 18.5808 13.0315 14.8085C12.1579 12.0259 12.2113 9.05071 12.2685 6.50217C12.2685 5.92828 12.2914 5.36949 12.2914 4.85978V4.38028C12.2914 3.98617 12.6142 3.66669 13.0124 3.66669H13.4969C16.6403 3.66669 18.933 2.8134 20.9358 0.899162L21.2754 0.574459C21.5554 0.303956 22.0024 0.303956 22.2825 0.574459L22.622 0.899162C24.5943 2.8134 26.887 3.66669 30.038 3.66669H30.5225C30.9178 3.67083 31.2359 3.9891 31.2359 4.38028ZM26.0782 8.77887L25.1322 7.83496C24.8852 7.59211 24.4865 7.59211 24.2395 7.83496L20.6841 11.3538L19.2955 9.98706C19.046 9.75021 18.6522 9.75021 18.4028 9.98706L17.4491 10.9423C17.2037 11.1867 17.2037 11.5814 17.4491 11.8258L20.2301 14.5782C20.4771 14.8211 20.8758 14.8211 21.1228 14.5782L26.0821 9.66991C26.2018 9.55168 26.2687 9.39098 26.268 9.2236C26.2673 9.05622 26.199 8.89608 26.0782 8.77887Z" fill="#1EA01E"/>
</svg>
