<svg width="24" height="25" viewBox="0 0 24 25" fill="none" xmlns="http://www.w3.org/2000/svg">
<path d="M4 3.37158C2.5 3.37158 1 4.87158 1 6.37158V18.3716C1 19.8716 2.5 21.3716 4 21.3716H20C21.5 21.3716 23 19.8716 23 18.3716V6.37158C23 4.87158 21.5 3.37158 20 3.37158H4ZM21 8.725L12 12.775L3 8.725V6.37158C3 5.8193 3.44772 5.37158 4 5.37158H20C20.5523 5.37158 21 5.8193 21 6.37158V8.725ZM21 10.9182V18.3716C21 18.9239 20.5523 19.3716 20 19.3716H4C3.44772 19.3716 3 18.9239 3 18.3716V10.9182L11.1793 14.5988C11.7012 14.8337 12.2988 14.8337 12.8207 14.5988L21 10.9182Z" fill="black" fill-opacity="0.2"/>
</svg>
