<svg width="22" height="19" viewBox="0 0 22 19" fill="none" xmlns="http://www.w3.org/2000/svg">
<path d="M12.3414 0C12.1203 0.625558 12 1.29873 12 2H8.5C4.91015 2 2 4.91015 2 8.5C2 12.0899 4.91015 15 8.5 15H13.6059L13.81 15.0973C14.7629 15.5514 15.6894 16.1352 16.5895 16.8472C16.6663 15.9602 16.7928 15.1193 16.9692 14.3245L17.0504 13.9586L17.3521 13.7362C19.0055 12.5175 20 10.5926 20 8.5C20 8.22108 19.9824 7.94625 19.9483 7.67658C20.628 7.44337 21.2525 7.09155 21.7972 6.64582C21.93 7.24267 22 7.86316 22 8.5C22 11.1014 20.8221 13.5081 18.8485 15.1067C18.7291 15.7112 18.6402 16.3489 18.5821 17.0198C18.5483 17.4097 18.4009 17.7811 18.1581 18.088C17.4728 18.9543 16.215 19.101 15.3487 18.4158C14.6275 17.8453 13.8942 17.3738 13.1485 17H8.5C3.80558 17 0 13.1944 0 8.5C0 3.80558 3.80558 0 8.5 0H12.3414Z" fill="black" fill-opacity="0.2"/>
</svg>
