<svg width="19" height="21" viewBox="0 0 19 21" fill="none" xmlns="http://www.w3.org/2000/svg">
<path d="M12 5.37158C12 3.71473 10.6569 2.37158 9 2.37158C7.34314 2.37158 6 3.71473 6 5.37158C6 7.02844 7.34314 8.37158 9 8.37158C10.6569 8.37158 12 7.02844 12 5.37158ZM14 5.37158C14 8.13301 11.7614 10.3716 9 10.3716C6.23857 10.3716 4 8.13301 4 5.37158C4 2.61016 6.23857 0.371582 9 0.371582C11.7614 0.371582 14 2.61016 14 5.37158ZM18 17.2999C18.122 18.9801 16.7389 20.3716 15.0507 20.3716L2.95681 20.3716C1.26854 20.3716 -0.114524 18.9801 0.00750184 17.2999C0.286783 13.4544 4.26692 11.3716 9.00006 11.3716C13.7239 11.3716 17.7183 13.4215 18 17.2999ZM16.005 17.4448C15.7951 14.5535 12.6055 13.3716 8.99985 13.3716C5.37245 13.3716 2.20898 14.5954 2.00204 17.4448C1.96645 17.9349 2.4005 18.3716 2.95661 18.3716L15.0505 18.3716C15.6066 18.3716 16.0406 17.9349 16.005 17.4448Z" fill="black" fill-opacity="0.2"/>
</svg>
