<svg width="24" height="25" viewBox="0 0 24 25" fill="none" xmlns="http://www.w3.org/2000/svg">
<path fill-rule="evenodd" clip-rule="evenodd" d="M16.3077 1.37158H7.69231C6.20615 1.37158 5 2.49158 5 3.87158V20.8716C5 22.2516 6.20615 23.3716 7.69231 23.3716H16.3077C17.7938 23.3716 19 22.2516 19 20.8716V3.87158C19 2.49158 17.7938 1.37158 16.3077 1.37158ZM12 22.3716C11.17 22.3716 10.5 21.7016 10.5 20.8716C10.5 20.0416 11.17 19.3716 12 19.3716C12.83 19.3716 13.5 20.0416 13.5 20.8716C13.5 21.7016 12.83 22.3716 12 22.3716ZM17 18.3716H7V4.37158H17V18.3716Z" fill="black" fill-opacity="0.2"/>
</svg>
