<svg width="24" height="25" viewBox="0 0 24 25" fill="none" xmlns="http://www.w3.org/2000/svg">
<path d="M15 7.37158C15 5.71473 13.6569 4.37158 12 4.37158C10.3431 4.37158 9 5.71473 9 7.37158C9 9.02844 10.3431 10.3716 12 10.3716C13.6569 10.3716 15 9.02844 15 7.37158ZM17 7.37158C17 10.133 14.7614 12.3716 12 12.3716C9.23857 12.3716 7 10.133 7 7.37158C7 4.61016 9.23857 2.37158 12 2.37158C14.7614 2.37158 17 4.61016 17 7.37158ZM21 19.2999C21.122 20.9801 19.7389 22.3716 18.0507 22.3716L5.95681 22.3716C4.26854 22.3716 2.88548 20.9801 3.0075 19.2999C3.28678 15.4544 7.26692 13.3716 12.0001 13.3716C16.7239 13.3716 20.7183 15.4215 21 19.2999ZM19.005 19.4448C18.7951 16.5535 15.6055 15.3716 11.9998 15.3716C8.37245 15.3716 5.20898 16.5954 5.00204 19.4448C4.96645 19.9349 5.4005 20.3716 5.95661 20.3716L18.0505 20.3716C18.6066 20.3716 19.0406 19.9349 19.005 19.4448Z" fill="black" fill-opacity="0.2"/>
</svg>
